<svg xmlns="http://www.w3.org/2000/svg" viewBox="0 0 300 300" role="img" aria-label="pynutil logo">
  <title>pynutil</title>
  <rect width="300" height="300" rx="28" fill="#fff"/>
  <path d="M0 0 C2.717 2.468 4.389 5.024 6.25 8.188 C7.24 8.188 8.23 8.188 9.25 8.188 C10.594 6.195 11.925 4.193 13.25 2.188 C17.737 -2.2 21.861 -4.569 28.245 -4.923 C30.402 -4.893 32.536 -4.781 34.688 -4.625 C35.081 -4.598 35.081 -4.598 37.075 -4.461 C68.196 -2.06 97.544 11.645 118.062 35.48 C119.25 37.188 119.25 37.188 119.25 39.188 C115.624 37.548 112.591 35.33 109.375 33 C89.196 18.856 60.307 8.141 35.25 11.188 C28.063 12.482 23.933 15.691 19.25 21.188 C16.332 19.868 14.29 18.41 12 16.188 C5.585 10.603 -1.609 10.93 -9.75 11.188 C-42.446 13.478 -71.135 27.385 -93.625 51.125 C-115.289 76.23 -122.34 103.789 -119.969 136.363 C-119.897 137.295 -119.824 138.227 -119.75 139.188 C-127.797 131.141 -127.977 110.407 -128.188 99.688 C-128.177 72.027 -115.323 48.484 -96.535 28.938 C-78.306 10.939 -25.026 -20.409 0 0 Z " fill="#000000" transform="translate(131.75,38.8125)"/>
  <path d="M0 0 C0.45 -0.013 0.45 -0.013 2.73 -0.08 C9.448 -0.096 13.066 1.453 17.961 6.227 C18.448 6.812 18.935 7.397 19.438 8 C19.94 8.59 20.443 9.181 20.961 9.789 C22.062 11.375 22.062 11.375 22.062 13.375 C23.382 13.375 24.702 13.375 26.062 13.375 C26.227 12.694 26.393 12.014 26.562 11.312 C28.957 6.623 33.334 2.739 38.062 0.375 C68.073 -2.19 97.558 7.428 120.754 26.531 C127.304 32.079 133.727 37.887 138.062 45.375 C134.744 43.949 132.079 41.905 129.242 39.694 C107.781 23.099 79.285 14.186 52.117 15.52 C46.296 16.33 42.912 18.622 38.754 22.719 C37.063 24.375 37.063 24.375 34.062 26.375 C33.382 25.468 32.701 24.56 32 23.625 C27.519 18.359 23.332 16.287 16.531 15.707 C10.444 15.278 4.667 15.591 -1.375 16.375 C-2.406 16.508 -3.436 16.641 -4.498 16.779 C-35.729 21.286 -63.951 37.665 -82.972 62.849 C-95.82 80.363 -104.194 99.921 -104.062 121.938 C-104.061 122.722 -104.059 123.507 -104.057 124.316 C-104.007 131.037 -103.599 137.685 -102.938 144.375 C-108.956 138.357 -109.51 124.578 -110.688 116.438 C-110.815 115.562 -110.943 114.687 -111.074 113.786 C-114.144 91.163 -107.076 68.714 -93.938 50.375 C-93.735 50.092 -93.735 50.092 -92.713 48.659 C-74.529 23.471 -48.288 6.672 -17.625 1 C-11.77 0.281 -5.893 0.108 0 0 Z " fill="#000000" transform="translate(125.9375,53.625)"/>
  <path d="M0 0 C0.811 -0.029 1.623 -0.058 2.459 -0.088 C8.318 -0.149 11.661 0.868 16.438 4.312 C18.293 6.418 18.293 6.418 19.625 8.5 C21.979 12.157 21.979 12.157 24.613 13.051 C24.914 13.094 24.914 13.094 26.438 13.312 C26.602 12.632 26.768 11.951 26.938 11.25 C29.332 6.561 33.709 2.677 38.438 0.312 C69.123 -1.256 97.704 7.499 121.438 27.312 C122.323 28.033 123.209 28.754 124.121 29.496 C138.925 42.083 151.173 60.65 156.438 79.312 C156.755 80.395 157.072 81.478 157.398 82.594 C164.214 109.355 157.253 137.305 143.594 160.562 C140.243 166.135 136.812 171.477 132.438 176.312 C131.815 177.003 131.192 177.694 130.551 178.406 C121.838 187.582 112.768 192.943 99.816 193.406 C93.753 192.997 90.042 190.609 85.492 186.598 C77.771 180.053 69.519 177.954 59.473 178.012 C56.773 178.411 54.882 179.05 52.438 180.312 C50.992 182.292 49.608 184.318 48.27 186.371 C45.454 190.13 43.067 192.53 38.337 193.375 C34.409 193.746 30.515 193.685 26.577 193.492 C24.11 193.374 21.655 193.349 19.186 193.338 C17.607 193.305 16.028 193.267 14.449 193.223 C13.719 193.211 12.989 193.199 12.236 193.187 C8.316 192.968 6.572 192.425 3.525 189.877 C1.863 187.835 0.337 185.849 -1.062 183.625 C-3.271 180.499 -4.677 179.09 -8.562 178.312 C-20.761 177.348 -29.229 180.194 -38.59 188.004 C-44.427 192.801 -48.769 193.657 -56.227 193.121 C-68.862 191.43 -79.021 183.213 -86.84 173.477 C-89.217 170.159 -91.429 166.79 -93.562 163.312 C-93.986 162.624 -94.409 161.936 -94.846 161.228 C-109.532 136.991 -115.399 109.741 -108.746 81.852 C-104.359 64.583 -95.063 50.67 -83.562 37.312 C-83.258 36.906 -83.258 36.906 -81.715 34.848 C-79.093 31.76 -76.201 29.4 -73 26.938 C-72.376 26.456 -71.752 25.974 -71.108 25.477 C-50.358 9.633 -26.221 0.314 0 0 Z M-14.812 29.875 C-15.557 30.061 -16.302 30.248 -17.069 30.44 C-38.756 36.183 -62.479 54.505 -74.363 73.516 C-76.358 77.017 -78.001 80.6 -79.562 84.312 C-79.923 85.078 -80.284 85.844 -80.656 86.633 C-84.721 95.929 -84.581 107.746 -81.562 117.312 C-76.676 129.291 -69.465 140.137 -61.562 150.312 C-61.016 151.055 -60.469 151.798 -59.906 152.562 C-52.539 161.884 -38.969 172.109 -27.562 175.312 C-23.685 175.341 -19.976 175.004 -16.125 174.566 C-9.706 174.109 -4.708 175.548 0.25 179.625 C2.437 182.312 2.437 182.312 4.604 185.433 C6.818 188.07 7.35 188.294 10.955 189.073 C12.293 189.106 13.631 189.104 14.969 189.074 C15.682 189.078 16.396 189.081 17.131 189.084 C18.634 189.084 20.137 189.069 21.639 189.04 C23.932 189 26.219 189.019 28.512 189.045 C29.977 189.037 31.441 189.026 32.906 189.012 C33.246 189.015 33.246 189.015 34.968 189.033 C38.816 188.919 40.34 188.395 43.32 185.877 C46.619 181.881 46.619 181.881 47.938 180.125 C51.777 175.805 55.405 175.046 61.07 174.383 C63.899 174.299 66.568 174.65 69.375 175 C81.466 176.103 91.134 167.294 100.176 160.148 C114.755 147.678 130.015 125.734 131.711 106.156 C131.992 96.914 130.171 89.735 126.438 81.312 C126.026 80.366 125.615 79.42 125.191 78.445 C116.023 59.674 93.266 40.785 73.941 33.121 C53.557 26.538 53.557 26.538 44.543 30.051 C36.587 34.247 29.354 42.938 24.438 50.312 C24.025 49.854 23.613 49.395 23.188 48.923 C21.281 46.815 19.359 44.72 17.438 42.625 C16.789 41.904 16.141 41.183 15.473 40.439 C9.811 34.302 4.137 28.86 -4.549 28.265 C-8.09 28.348 -11.387 29.007 -14.812 29.875 Z " fill="#000000" transform="translate(136.5625,72.6875)"/>
  <text x="150" y="178" text-anchor="middle" dominant-baseline="middle" font-family="Arial, Helvetica, sans-serif" font-size="39" font-weight="400" fill="#000">pynutil</text>
</svg>
